<svg width="20" height="20" viewBox="0 0 20 20" fill="none" xmlns="http://www.w3.org/2000/svg">
<path d="M18.3333 6.66669C18.3414 6.60864 18.3414 6.54974 18.3333 6.49169V6.42502C18.319 6.37851 18.2994 6.33378 18.275 6.29169C18.2641 6.26769 18.2501 6.24526 18.2333 6.22502L18.15 6.11669L18.0833 6.06669L17.9833 5.99169L10.4833 1.82502C10.3566 1.75188 10.2129 1.71338 10.0666 1.71338C9.92035 1.71338 9.77664 1.75188 9.64996 1.82502L2.14996 5.99169L2.07496 6.05002L1.98329 6.11669C1.95908 6.14394 1.93939 6.17489 1.92496 6.20836C1.8983 6.23227 1.87577 6.26043 1.85829 6.29169C1.83666 6.32826 1.81985 6.36747 1.80829 6.40836C1.80363 6.43594 1.80363 6.46411 1.80829 6.49169C1.751 6.5411 1.70302 6.60036 1.66663 6.66669V13.3334C1.66771 13.4819 1.70845 13.6274 1.78464 13.7548C1.86082 13.8823 1.96968 13.9871 2.09996 14.0584L9.59996 18.225C9.63439 18.2451 9.67067 18.2619 9.70829 18.275H9.79163C9.92853 18.3083 10.0714 18.3083 10.2083 18.275H10.2916L10.4083 18.225L17.9083 14.0584C18.037 13.986 18.1442 13.8807 18.2189 13.7534C18.2936 13.626 18.333 13.481 18.3333 13.3334V6.66669ZM9.99996 9.89169L4.21663 6.66669L6.51663 5.40002L12.2083 8.65002L9.99996 9.89169ZM9.99996 3.45836L15.7833 6.66669L13.9166 7.70836L8.22496 4.45002L9.99996 3.45836ZM3.33329 8.08336L9.16663 11.35V16.0834L3.33329 12.8417V8.08336ZM10.8333 16.0834V11.35L13.3333 9.95002V12.5L15 11.6667V9.01669L16.6666 8.09169V12.8417L10.8333 16.0834Z" fill="#3C3C3C"/>
</svg>
